#!OML:ASF H:\BabyWalks\Project 1\Capture day 1\Session 1\baby.ASF
:FULLY-SPECIFIED
:DEGREES
607
root 7.20176 17.3438 -1.2261 -29.2073 87.3542 -43.1913
lowerback 21.7138 0.14615 6.59428
upperback 6.77278 2.48704 5.2109
thorax -4.69758 1.42819 1.22275
lowerneck -3.23166 -0.230927 7.18765
upperneck -13.6949 -1.18958 -11.9362
head -3.59357 -0.2715 -4.87032
rclavicle -4.45278e-014 -5.40694e-014
rhumerus -46.9547 10.734 -79.6009
rradius 49.8654
rwrist 2.63094
rhand -10.7493 -16.6747
rfingers 7.12502
rthumb 15.262 -46.0917
lclavicle -4.45278e-014 -5.40694e-014
lhumerus -67.7256 -8.02407 93.7891
lradius 52.814
lwrist -7.7426
lhand 2.63848 6.534
lfingers 7.12502
lthumb 28.1151 34.4465
rfemur -9.43217 17.9794 20.9559
rtibia 27.5538
rfoot -28.4125 0.138292
rtoes -3.17401
lfemur -35.2571 0.418881 -12.1162
ltibia 61.2405
lfoot -26.823 -20.506
ltoes -14.5208
608
root 7.33053 17.3513 -1.21036 -30.9841 87.7612 -45.0789
lowerback 21.6622 0.401523 6.31327
upperback 6.74648 2.74123 5.1177
thorax -4.70365 1.54864 1.21685
lowerneck -3.34765 -0.435839 7.13399
upperneck -13.6692 -1.43683 -11.5946
head -3.5929 -0.409737 -4.7475
rclavicle 3.18055e-014 6.52014e-014
rhumerus -46.7193 10.9576 -79.251
rradius 51.2132
rwrist 2.24859
rhand -11.5683 -17.0004
rfingers 7.12502
rthumb 14.473 -46.4757
lclavicle 3.18055e-014 6.52014e-014
lhumerus -68.8811 -8.5923 93.9144
lradius 54.2676
lwrist -7.25036
lhand 2.72387 6.46261
lfingers 7.12502
lthumb 28.1967 34.3617
rfemur -8.72477 17.661 20.9249
rtibia 26.8943
rfoot -28.1442 0.288685
rtoes -3.4986
lfemur -36.4231 0.151107 -12.3372
ltibia 60.6632
lfoot -26.7685 -20.0555
ltoes -14.5507
609
root 7.46372 17.3618 -1.19463 -34.2137 88.1662 -48.4448
lowerback 21.5813 0.650996 6.04177
upperback 6.70252 2.98549 5.007
thorax -4.71359 1.66335 1.19013
lowerneck -3.42907 -0.643752 7.08806
upperneck -13.6502 -1.68658 -11.2421
head -3.59922 -0.549105 -4.62275
rclavicle 3.18055e-015 -6.36111e-015
rhumerus -46.5441 11.1885 -78.9202
rradius 52.6546
rwrist 1.852
rhand -12.5048 -17.3306
rfingers 7.12502
rthumb 13.5705 -46.8683
lclavicle 3.18055e-015 -6.36111e-015
lhumerus -69.9785 -9.1605 93.9528
lradius 55.73
lwrist -6.61114
lhand 2.69212 6.39886
lfingers 7.12502
lthumb 28.1663 34.3029
rfemur -7.96538 17.3422 20.907
rtibia 26.0938
rfoot -27.7865 0.435259
rtoes -3.88774
lfemur -37.5384 -0.15906 -12.5425
ltibia 59.7782
lfoot -26.6875 -19.6238
ltoes -14.5188
610
root 7.60112 17.3745 -1.17888 -40.3695 88.555 -54.7517
lowerback 21.4851 0.891982 5.78498
upperback 6.64187 3.2197 4.88175
thorax -4.733 1.77233 1.14271
lowerneck -3.49178 -0.857719 7.06115
upperneck -13.6224 -1.94371 -10.8868
head -3.60578 -0.693152 -4.50009
rclavicle 1.90833e-014 3.18055e-014
rhumerus -46.4174 11.4215 -78.6025
rradius 54.1606
rwrist 1.45787
rhand -13.5008 -17.6454
rfingers 7.12502
rthumb 12.6104 -47.2447
lclavicle 1.90833e-014 3.18055e-014
lhumerus -70.9978 -9.72192 93.903
lradius 57.1653
lwrist -5.8434
lhand 2.58811 6.33754
lfingers 7.12502
lthumb 28.0669 34.2579
rfemur -7.16133 17.0199 20.9166
rtibia 25.1987
rfoot -27.3641 0.57085
rtoes -4.32414
lfemur -38.594 -0.514904 -12.7205
ltibia 58.6383
lfoot -26.6162 -19.1667
ltoes -14.4578
611
root 7.74265 17.3887 -1.16309 -52.6416 88.8985 -67.1776
lowerback 21.3846 1.1184 5.54641
upperback 6.56817 3.43876 4.74863
thorax -4.76359 1.87342 1.08084
lowerneck -3.54274 -1.07533 7.041
upperneck -13.5775 -2.20463 -10.5268
head -3.60846 -0.839907 -4.37681
rclavicle -1.59028e-015 3.18055e-014
rhumerus -46.3255 11.6557 -78.2881
rradius 55.7095
rwrist 1.07085
rhand -14.5029 -17.9303
rfingers 7.12502
rthumb 11.6441 -47.5867
lclavicle -1.59028e-015 3.18055e-014
lhumerus -71.9173 -10.2621 93.7678
lradius 58.5382
lwrist -4.99537
lhand 2.43876 6.28658
lfingers 7.12502
lthumb 27.9241 34.2303
rfemur -6.26997 16.691 20.9676
rtibia 24.1488
rfoot -26.8352 0.69458
rtoes -4.78438
lfemur -39.5714 -0.914151 -12.8613
ltibia 57.2639
lfoot -26.5415 -18.6685
ltoes -14.3612
612
root 7.8866 17.3945 -1.14784 -75.4858 89.1165 -90.1658
lowerback 21.2934 1.32579 5.33253
upperback 6.48436 3.63969 4.60943
thorax -4.80846 1.96531 1.00306
lowerneck -3.5836 -1.29517 7.02999
upperneck -13.5152 -2.46818 -10.1685
head -3.60684 -0.988634 -4.25535
rclavicle 1.11319e-014 6.36111e-014
rhumerus -46.2564 11.8872 -77.9744
rradius 57.2777
rwrist 0.688813
rhand -15.4752 -18.1644
rfingers 7.12502
rthumb 10.7064 -47.8716
lclavicle 1.11319e-014 6.36111e-014
lhumerus -72.7252 -10.776 93.552
lradius 59.8205
lwrist -4.09991
lhand 2.29246 6.24834
lfingers 7.12502
lthumb 27.7843 34.2147
rfemur -5.28216 16.3486 21.068
rtibia 22.958
rfoot -26.2025 0.810176
rtoes -5.29768
lfemur -40.4942 -1.34825 -12.9583
ltibia 55.7306
lfoot -26.4643 -18.1207
ltoes -14.2303
613
root 8.03639 17.4082 -1.13265 -104.992 89.0918 -119.799
lowerback 21.2183 1.51286 5.1432
upperback 6.39404 3.82157 4.46729
thorax -4.86719 2.04771 0.912704
lowerneck -3.62719 -1.5146 7.02418
upperneck -13.4252 -2.73104 -9.81308
head -3.59537 -1.13787 -4.13558
rclavicle 1.43125e-014 8.74653e-014
rhumerus -46.203 12.1126 -77.6571
rradius 58.8479
rwrist 0.318556
rhand -16.3929 -18.3229
rfingers 7.12502
rthumb 9.82111 -48.0738
lclavicle 1.43125e-014 8.74653e-014
lhumerus -73.4098 -11.254 93.2589
lradius 60.9975
lwrist -3.18841
lhand 2.16636 6.22874
lfingers 7.12502
lthumb 27.6637 34.2145
rfemur -4.17719 15.9925 21.221
rtibia 21.6056
rfoot -25.4469 0.93117
rtoes -5.95675
lfemur -41.2896 -1.81178 -13.0146
ltibia 54.0305
lfoot -26.3913 -17.5277
ltoes -14.0694
614
root 8.19037 17.4207 -1.11791 -126.8 88.8342 -141.708
lowerback 21.1656 1.67813 4.97122
upperback 6.30204 3.98107 4.32056
thorax -4.9381 2.11921 0.81252
lowerneck -3.67226 -1.73081 7.02421
upperneck -13.3123 -2.98975 -9.46174
head -3.57543 -1.28562 -4.01816
rclavicle 6.36111e-015 -6.04305e-014
rhumerus -46.1536 12.3318 -77.3364
rradius 60.4042
rwrist -0.0563078
rhand -17.2219 -18.402
rfingers 7.12502
rthumb 9.02119 -48.1891
lclavicle 6.36111e-015 -6.04305e-014
lhumerus -73.965 -11.693 92.892
lradius 62.0633
lwrist -2.31149
lhand 2.07054 6.21676
lfingers 7.12502
lthumb 27.5721 34.2172
rfemur -2.95985 15.633 21.417
rtibia 20.1211
rfoot -24.5743 1.07541
rtoes -6.68806
lfemur -41.9851 -2.28861 -13.0414
ltibia 52.2407
lfoot -26.3007 -16.9069
ltoes -13.9007
615
root 8.3488 17.4317 -1.10372 -138.756 88.4495 -153.732
lowerback 21.138 1.82044 4.81397
upperback 6.21187 4.11652 4.17269
thorax -5.0191 2.17916 0.707841
lowerneck -3.71393 -1.94125 7.01676
upperneck -13.1866 -3.2404 -9.10895
head -3.55037 -1.42904 -3.89938
rclavicle -9.54166e-015 -7.95139e-015
rhumerus -46.1081 12.5432 -77.0114
rradius 61.9454
rwrist -0.429464
rhand -17.9405 -18.4071
rfingers 7.12502
rthumb 8.32772 -48.223
lclavicle -9.54166e-015 -7.95139e-015
lhumerus -74.3902 -12.0876 92.4657
lradius 63.0125
lwrist -1.49446
lhand 2.01518 6.24081
lfingers 7.12502
lthumb 27.5191 34.2497
rfemur -1.60146 15.2613 21.6538
rtibia 18.4465
rfoot -23.5433 1.2594
rtoes -7.49098
lfemur -42.5667 -2.76068 -13.047
ltibia 50.381
lfoot -26.1486 -16.2763
ltoes -13.6928
616
root 8.51196 17.4434 -1.09008 -145.046 88.0097 -160.063
lowerback 21.1323 1.94089 4.67023
upperback 6.12542 4.22826 4.02131
thorax -5.10633 2.22781 0.596786
lowerneck -3.76047 -2.14283 7.00806
upperneck -13.0504 -3.47926 -8.75558
head -3.51931 -1.56655 -3.78082
rclavicle -1.66979e-014 0
rhumerus -46.0631 12.7378 -76.6858
rradius 63.4643
rwrist -0.784711
rhand -18.5429 -18.3362
rfingers 7.12502
rthumb 7.74635 -48.1743
lclavicle -1.66979e-014 0
lhumerus -74.6855 -12.4386 91.983
lradius 63.8471
lwrist -0.773498
lhand 1.99305 6.28949
lfingers 7.12502
lthumb 27.4979 34.3017
rfemur -0.172795 14.8932 21.9234
rtibia 16.6811
rfoot -22.3761 1.50774
rtoes -8.2328
lfemur -43.037 -3.21203 -13.0396
ltibia 48.5115
lfoot -25.9225 -15.6418
ltoes -13.4177
617
root 8.67998 17.4559 -1.0771 -148.283 87.5471 -163.313
lowerback 21.1436 2.04017 4.54109
upperback 6.04654 4.31705 3.86849
thorax -5.19319 2.26577 0.481004
lowerneck -3.80385 -2.33154 6.97937
upperneck -12.9211 -3.69892 -8.38221
head -3.48771 -1.69375 -3.65359
rclavicle -1.51076e-014 3.33958e-014
rhumerus -46.0168 12.9266 -76.3624
rradius 64.9634
rwrist -1.12388
rhand -19.0302 -18.2124
rfingers 7.12502
rthumb 7.27601 -48.0673
lclavicle -1.51076e-014 3.33958e-014
lhumerus -74.853 -12.7404 91.4536
lradius 64.5748
lwrist -0.181076
lhand 1.99495 6.35356
lfingers 7.12502
lthumb 27.4998 34.3655
rfemur 1.30445 14.528 22.2242
rtibia 14.8597
rfoot -21.0797 1.82949
rtoes -8.88074
lfemur -43.3951 -3.62735 -13.0204
ltibia 46.6738
lfoot -25.607 -15.0158
ltoes -13.0625
618
root 8.85238 17.4693 -1.06455 -150.012 87.0827 -165.039
lowerback 21.1635 2.12257 4.4091
upperback 5.97333 4.38366 3.71203
thorax -5.27852 2.2933 0.368048
lowerneck -3.83949 -2.50712 6.93637
upperneck -12.8111 -3.89919 -7.98975
head -3.46014 -1.81042 -3.51899
rclavicle -9.54166e-015 -6.36111e-015
rhumerus -45.9654 13.0976 -76.0419
rradius 66.4381
rwrist -1.40109
rhand -19.3899 -18.0571
rfingers 7.12502
rthumb 6.92877 -47.9237
lclavicle -9.54166e-015 -6.36111e-015
lhumerus -74.9002 -12.9923 90.8857
lradius 65.196
lwrist 0.253
lhand 2.00564 6.40837
lfingers 7.12502
lthumb 27.51 34.4187
rfemur 2.78771 14.1666 22.5397
rtibia 13.0287
rfoot -19.666 2.21016
rtoes -9.46766
lfemur -43.6514 -3.99816 -13.0011
ltibia 44.905
lfoot -25.2081 -14.4098
ltoes -12.6943
619
root 9.02875 17.483 -1.05252 -150.626 86.6245 -165.641
lowerback 21.1903 2.18794 4.28103
upperback 5.90482 4.42936 3.5546
thorax -5.36226 2.31099 0.25674
lowerneck -3.86902 -2.66439 6.87074
upperneck -12.7245 -4.0721 -7.57062
head -3.43663 -1.91248 -3.3735
rclavicle -5.56597e-015 -2.8625e-014
rhumerus -45.9082 13.2624 -75.7319
rradius 67.8816
rwrist -1.60044
rhand -19.6552 -17.8745
rfingers 7.12502
rthumb 6.67272 -47.7494
lclavicle -5.56597e-015 -2.8625e-014
lhumerus -74.8364 -13.1824 90.2815
lradius 65.7203
lwrist 0.5125
lhand 2.01526 6.45243
lfingers 7.12502
lthumb 27.5192 34.4613
rfemur 4.24014 13.7988 22.8755
rtibia 11.2388
rfoot -18.1526 2.64222
rtoes -10.0425
lfemur -43.8147 -4.31729 -12.9662
ltibia 43.2487
lfoot -24.7418 -13.8462
ltoes -12.3794
